HIERARCHY
ROOT Hips
{
	OFFSET -3.958830 18.904000 13.208200
	CHANNELS 6 Xposition Yposition Zposition Zrotation Yrotation Xrotation 
	JOINT LHipJoint
	{
		OFFSET 0.000000 0.000000 0.000000
		CHANNELS 3 Zrotation Yrotation Xrotation
		JOINT LeftUpLeg
		{
			OFFSET 1.800000 -1.400000 0.085000
			CHANNELS 3 Zrotation Yrotation Xrotation
			JOINT LeftLeg
			{
				OFFSET 2.215000 -6.000000 0.000000
				CHANNELS 3 Zrotation Yrotation Xrotation
				JOINT LeftFoot
				{
					OFFSET 2.500000 -6.900000 0.000000
					CHANNELS 3 Zrotation Yrotation Xrotation
					JOINT LeftToeBase
					{
						OFFSET 0.200000 -0.500000 1.950000
						CHANNELS 3 Zrotation Yrotation Xrotation
						End Site
						{
							OFFSET 0.000000 0.000000 0.000000
						}
					}
				}
			}
		}
	}
	JOINT RHipJoint
	{
		OFFSET 0.000000 0.000000 0.000000
		CHANNELS 3 Zrotation Yrotation Xrotation
		JOINT RightUpLeg
		{
			OFFSET -1.800000 -1.400000 0.085000
			CHANNELS 3 Zrotation Yrotation Xrotation
			JOINT RightLeg
			{
				OFFSET -2.215000 -6.000000 0.000000
				CHANNELS 3 Zrotation Yrotation Xrotation
				JOINT RightFoot
				{
					OFFSET -2.500000 -6.900000 0.000000
					CHANNELS 3 Zrotation Yrotation Xrotation
					JOINT RightToeBase
					{
						OFFSET -0.200000 -0.500000 1.950000
						CHANNELS 3 Zrotation Yrotation Xrotation
						End Site
						{
							OFFSET 0.000000 0.000000 0.000000
						}
					}
				}
			}
		}
	}
	JOINT LowerBack
	{
		OFFSET 0.000000 0.000000 0.000000
		CHANNELS 3 Zrotation Yrotation Xrotation
		JOINT Spine
		{
			OFFSET -0.087000 1.940000 -0.288900
			CHANNELS 3 Zrotation Yrotation Xrotation
			JOINT Spine1
			{
				OFFSET 0.000000 1.950000 0.060000
				CHANNELS 3 Zrotation Yrotation Xrotation
				JOINT Neck
				{
					OFFSET 0.000000 0.000000 0.000000
					CHANNELS 3 Zrotation Yrotation Xrotation
					JOINT Neck1
					{
						OFFSET 0.000000 1.600000 0.340000
						CHANNELS 3 Zrotation Yrotation Xrotation
						JOINT Head
						{
							OFFSET 0.000000 1.667000 -0.240000
							CHANNELS 3 Zrotation Yrotation Xrotation
							End Site
							{
								OFFSET 0.000000 0.000000 0.000000
							}
						}
					}
				}
				JOINT LeftShoulder
				{
					OFFSET 0.000000 0.000000 0.000000
					CHANNELS 3 Zrotation Yrotation Xrotation
					JOINT LeftArm
					{
						OFFSET 2.700000 1.550000 -0.730000
						CHANNELS 3 Zrotation Yrotation Xrotation
						JOINT LeftForeArm
						{
							OFFSET 5.450000 0.000000 0.000000
							CHANNELS 3 Zrotation Yrotation Xrotation
							JOINT LeftHand
							{
								OFFSET 3.450000 0.000000 0.000000
								CHANNELS 3 Zrotation Yrotation Xrotation
								JOINT LeftHandIndex1
								{
									OFFSET 0.750000 0.000000 0.000000
									CHANNELS 3 Zrotation Yrotation Xrotation
									End Site
									{
										OFFSET 0.000000 0.000000 0.000000
									}
								}
							}
						}
					}
				}
				JOINT RightShoulder
				{
					OFFSET 0.000000 0.000000 0.000000
					CHANNELS 3 Zrotation Yrotation Xrotation
					JOINT RightArm
					{
						OFFSET -2.700000 1.550000 -0.730000
						CHANNELS 3 Zrotation Yrotation Xrotation
						JOINT RightForeArm
						{
							OFFSET -5.450000 0.000000 0.000000
							CHANNELS 3 Zrotation Yrotation Xrotation
							JOINT RightHand
							{
								OFFSET -3.450000 0.000000 0.000000
								CHANNELS 3 Zrotation Yrotation Xrotation
								JOINT RightHandIndex1
								{
									OFFSET -0.750000 0.000000 0.000000
									CHANNELS 3 Zrotation Yrotation Xrotation
									End Site
									{
										OFFSET 0.000000 0.000000 0.000000
									}
								}
							}
						}
					}
				}
			}
		}
	}
}
MOTION
Frames: 9
Frame Time: 0.016667
-11.567390 17.427690 -2.458270 -6.175571 -17.292431 6.370168 -15.339737 12.362651 3.682899 5.815126 -4.131455 -24.123104 -2.745278 1.051931 -8.669638 -1.969120 4.693219 3.418883 0.354780 0.035250 -0.422830 18.405216 -9.731408 2.430772 -0.544962 -0.809026 -2.388817 8.102987 -5.272230 6.566584 -0.343060 -5.017739 2.514254 0.824140 2.049610 0.875160 -3.558137 -3.264080 -6.930687 9.356694 -0.146894 0.924071 -1.931294 0.254334 8.236743 -4.636004 -5.744057 -8.238460 -12.450077 27.753454 12.214089 12.725070 8.620000 -3.651270 -5.504018 -14.152356 3.447664 -18.409565 -22.255926 4.752522 -8.850045 -70.877075 3.426933 -4.706327 3.183460 0.565520 1.176360 -0.565090 0.703380 15.489252 15.154491 2.941983 -2.809395 7.107429 -1.489141 4.353293 74.571603 4.233021 1.059997 -1.975918 -0.994060 1.074470 0.593560 0.207750 
-11.574540 17.425910 -2.439060 -5.973076 -17.368530 6.853223 -15.349582 12.347188 3.685021 5.655814 -4.288756 -24.401367 -2.596703 0.988630 -8.733266 -2.073960 4.731610 3.397743 0.451270 0.144060 -0.369610 18.408187 -9.684364 2.402952 -0.890289 -0.707564 -2.676145 8.413892 -5.221861 6.409318 -0.344363 -5.041486 2.462925 0.946210 2.078250 0.870880 -3.563968 -3.348703 -6.866832 9.585638 -0.329488 0.055386 -2.224752 0.098233 7.984540 -5.288938 -6.216800 -8.081911 -13.955662 29.917759 10.405008 13.315740 9.319700 -3.538830 -5.321066 -13.404169 3.332614 -18.460705 -21.884406 4.989236 -6.274110 -69.899251 1.594959 -4.728491 3.199193 0.547510 1.196070 -0.590280 0.726690 16.644550 14.507024 2.765789 -4.304790 5.488671 -0.966358 2.843600 73.042336 3.055179 1.020390 -2.049704 -1.022090 1.128910 0.581070 0.201150 
-11.579540 17.430650 -2.439210 -5.946188 -17.812724 7.194197 -15.356092 12.336499 3.681602 5.830901 -4.330019 -24.670472 -2.660464 1.005921 -8.569786 -2.185601 4.843313 3.375421 0.494370 0.182290 -0.365130 18.408574 -9.660074 2.385473 -0.951633 -0.558386 -3.066319 8.379027 -5.124046 6.411827 -0.303438 -5.087548 2.426649 1.042480 2.174160 0.873780 -3.566665 -3.383020 -6.822267 9.632132 -0.330104 -0.641359 -2.258661 0.063605 8.172098 -5.825178 -6.122500 -8.025279 -14.353800 31.872472 9.049438 13.576750 10.198010 -2.382240 -5.290879 -13.705335 3.458373 -18.279893 -21.248469 4.727150 -3.184024 -68.752978 -0.625690 -4.804370 3.218100 0.498980 1.272030 -0.676150 0.751710 17.729467 14.532615 2.539288 -4.068095 6.050527 -0.585653 2.456372 68.609390 2.664114 0.943020 -2.100114 -1.079430 1.184530 0.604320 0.195060 
-11.576130 17.434370 -2.445180 -5.833884 -18.091904 6.936738 -15.376462 12.416708 3.698119 5.941754 -4.389796 -24.511578 -2.990497 1.031735 -8.358973 -2.237046 4.930609 3.280116 0.506300 0.099150 -0.268700 18.386119 -9.580288 2.378074 -1.253111 -0.523537 -2.819943 8.553614 -5.206677 6.264076 -0.334552 -5.076216 2.337069 0.998110 2.093200 0.946760 -3.504122 -3.682743 -6.830791 9.613322 -0.677531 -0.398171 -2.612492 -0.061231 8.499404 -5.892560 -6.471642 -8.691051 -15.470190 33.133524 8.605099 13.661320 11.377410 -2.657330 -5.283758 -14.335709 3.744546 -17.390918 -20.286984 3.901118 -0.807770 -67.571338 -2.334216 -4.783960 3.281804 0.586050 1.221720 -0.628030 0.692530 17.895998 14.934152 3.334199 -4.851511 2.853649 -0.815436 3.576494 69.299730 3.059441 0.964572 -2.149515 -1.076250 1.097640 0.640830 0.125430 
-11.573170 17.442820 -2.449880 -5.965380 -18.154637 6.576429 -15.385777 12.508184 3.675738 5.960742 -4.338207 -24.211022 -2.582229 1.048011 -8.114516 -2.210894 4.900690 3.238561 0.485220 0.013630 -0.203720 18.374073 -9.534082 2.403259 -1.012841 -0.609115 -2.300471 8.290249 -5.213793 5.975792 -0.382667 -5.032389 2.293903 0.905010 1.991200 1.006520 -3.464777 -3.905609 -6.851562 9.605542 -1.004185 0.067425 -2.812541 -0.283403 8.784526 -5.611621 -6.667237 -9.337925 -16.126577 34.222919 8.781121 13.761080 13.033290 -2.925290 -6.255990 -15.524713 4.118149 -15.557120 -18.946503 2.658118 2.146257 -67.311336 -4.222055 -4.738424 3.326803 0.667540 1.154790 -0.550910 0.639140 18.348986 15.897591 4.132277 -3.291991 1.183927 -2.055634 -1.962708 66.775990 -0.191083 0.980627 -2.081760 -1.040180 0.989130 0.654240 0.076620 
-11.570970 17.446040 -2.463940 -5.900559 -18.341649 6.008022 -15.401280 12.617720 3.672350 6.103220 -4.252505 -24.049346 -2.697074 1.151704 -7.720837 -2.174632 4.904780 3.239698 0.418100 -0.090390 -0.194360 18.347962 -9.484213 2.417155 -1.242665 -0.693037 -1.716577 8.364771 -5.288034 5.780856 -0.382541 -5.039001 2.300591 0.821510 1.965570 0.996970 -3.391217 -4.185242 -6.890635 9.084766 -0.977505 0.640766 -2.416556 -0.124471 9.478423 -5.675427 -6.605355 -10.182583 -16.079080 34.300894 9.390780 13.625950 13.869490 -2.544080 -5.582336 -16.748105 4.701236 -15.673015 -18.719210 1.630653 5.998798 -64.988692 -6.556731 -4.701552 3.273889 0.699570 1.134610 -0.544430 0.600550 17.835388 16.738495 4.845716 -2.409363 -0.415033 -2.883697 -4.248416 64.049704 -1.370139 0.994056 -2.022368 -1.054260 0.954200 0.667930 0.047840 
-11.576200 17.454770 -2.475040 -5.767753 -18.714003 5.745242 -15.407530 12.668793 3.666144 6.015873 -4.199930 -23.888416 -2.597061 1.179671 -7.673259 -2.130918 4.871923 3.269048 0.394920 -0.086570 -0.224570 18.337468 -9.463613 2.427839 -1.307768 -0.725452 -1.484623 8.232847 -5.230314 5.569245 -0.373870 -5.032818 2.331845 0.811600 1.978400 0.969550 -3.362697 -4.310032 -6.905605 8.698329 -0.794124 0.763186 -2.054787 0.141468 9.894827 -5.963877 -6.747204 -10.751172 -16.523402 34.503114 9.313372 13.868450 14.070280 -2.188500 -5.130287 -17.440262 5.018747 -15.800167 -18.725765 1.188564 7.706908 -62.986220 -7.365796 -4.680026 3.233670 0.673970 1.138660 -0.552280 0.605790 18.011216 17.355341 5.434260 -2.425750 -1.823341 -3.091699 -5.541707 61.485179 -2.013699 1.008060 -2.011763 -1.050350 0.966560 0.656880 0.068240 
-11.567930 17.458450 -2.481950 -5.799420 -18.789084 5.404332 -15.402815 12.728508 3.650482 5.728596 -4.138206 -23.607784 -2.136276 1.170475 -7.659839 -2.128140 4.790589 3.289017 0.410920 -0.049150 -0.193750 18.336859 -9.462132 2.437705 -1.290746 -0.768934 -1.289625 8.112277 -5.231464 5.640729 -0.402625 -4.985052 2.351423 0.810150 1.927930 0.937330 -3.361319 -4.409988 -6.922984 8.797370 -0.816784 1.130135 -2.057440 0.270685 10.401361 -6.106139 -6.901375 -11.451984 -17.008975 34.668208 9.359650 14.036110 14.453550 -3.177590 -4.398683 -18.143886 5.414811 -16.038241 -18.429807 0.548432 9.541530 -61.416948 -8.338137 -4.609735 3.164070 0.714650 1.092210 -0.506970 0.591200 17.604791 17.903158 6.012222 -2.014267 -3.112188 -3.403122 -6.223618 58.458052 -2.180548 1.013728 -1.956077 -1.043420 0.984520 0.635810 0.058880 
-11.563920 17.455530 -2.488570 -5.732170 -18.844599 5.338764 -15.403617 12.758606 3.650768 5.474960 -4.127344 -23.580191 -2.213544 1.193569 -7.540921 -2.101143 4.773251 3.292527 0.371750 -0.080010 -0.238420 18.332903 -9.461435 2.434254 -1.247697 -0.728389 -1.470257 8.121776 -5.267536 5.848382 -0.380389 -4.991964 2.361343 0.783890 1.936440 0.955290 -3.350359 -4.458851 -6.923476 8.864979 -0.695284 1.199396 -2.129788 0.477134 10.620530 -6.089552 -6.974964 -11.783758 -17.231202 34.663978 9.392123 13.621060 14.746460 -2.648750 -3.827013 -18.222676 5.414653 -16.323965 -19.000613 0.544670 10.590955 -60.108027 -8.706745 -4.631418 3.172722 0.686490 1.118110 -0.519020 0.585650 17.027421 17.919310 6.425073 -1.258509 -4.090148 -3.450643 -6.708438 56.124009 -2.261279 1.003885 -1.958970 -1.028200 0.947900 0.651220 0.067580 
